<svg width="400" height="400" viewBox="0 0 400 400" fill="none" xmlns="http://www.w3.org/2000/svg">
<path fill-rule="evenodd" clip-rule="evenodd" d="M70.8666 223.846C65.0067 214.29 59.4404 205.167 53.2125 195.85C50.2419 191.406 46.5201 186.677 43.3303 182.381C40.5826 188.365 39.9839 191.951 37.1793 197.893C37.1784 197.895 25.0703 190.768 16.2519 185.968C22.3029 198.338 35.4744 211.312 43.1322 218.055C44.9346 213.8 46.7089 209.425 48.1475 205.032C55.7906 211.204 63.304 217.583 70.8666 223.846Z" fill="#FFDE6A" stroke="#FFDE6A" stroke-width="3.94849" stroke-miterlimit="1.5" stroke-linecap="round" stroke-linejoin="round"/>
<path d="M331.975 87.699C337.923 86.1051 343.367 91.5484 341.773 97.497L329.221 144.342C327.627 150.29 320.191 152.283 315.836 147.928L281.543 113.635C277.189 109.281 279.181 101.845 285.13 100.251L331.975 87.699Z" fill="#FFC700"/>
<path d="M256.348 310.197C257.18 305.592 261.77 302.68 266.291 303.892L288.132 309.744C292.653 310.955 295.173 315.772 293.59 320.176L282.732 350.396C281.325 354.311 277.152 356.495 273.133 355.418L256.444 350.946C252.425 349.869 249.902 345.892 250.642 341.797L256.348 310.197Z" fill="#FFC700"/>
<path d="M201.41 320.176C199.827 315.772 202.347 310.955 206.868 309.744L228.709 303.892C233.23 302.68 237.82 305.592 238.652 310.197L244.358 341.797C245.098 345.892 242.575 349.869 238.556 350.946L221.867 355.418C217.848 356.495 213.675 354.311 212.268 350.396L201.41 320.176Z" fill="#FFC700"/>
<circle cx="199" cy="206" r="140" fill="#FFDE6A"/>
<path d="M254.5 182.125C254.5 193.554 245.956 202.75 235.5 202.75C225.044 202.75 216.5 193.554 216.5 182.125C216.5 170.696 225.044 161.5 235.5 161.5C245.956 161.5 254.5 170.696 254.5 182.125Z" fill="#F6F6F6" stroke="#454545"/>
<ellipse cx="240.375" cy="182.125" rx="14.625" ry="16.25" fill="#454545"/>
<path d="M333.5 182.125C333.5 193.554 324.956 202.75 314.5 202.75C304.044 202.75 295.5 193.554 295.5 182.125C295.5 170.696 304.044 161.5 314.5 161.5C324.956 161.5 333.5 170.696 333.5 182.125Z" fill="#F6F6F6" stroke="#454545"/>
<ellipse cx="319.375" cy="182.125" rx="14.625" ry="16.25" fill="#454545"/>
<path d="M106.41 320.176C104.827 315.772 107.347 310.955 111.868 309.744L133.709 303.892C138.23 302.68 142.82 305.592 143.652 310.197L149.358 341.797C150.098 345.892 147.575 349.869 143.556 350.946L126.867 355.418C122.848 356.495 118.675 354.311 117.268 350.396L106.41 320.176Z" fill="#FFC700"/>
<path d="M161.348 310.197C162.18 305.592 166.77 302.68 171.291 303.892L193.132 309.744C197.653 310.955 200.173 315.772 198.59 320.176L187.732 350.396C186.325 354.311 182.152 356.495 178.133 355.418L161.444 350.946C157.425 349.869 154.902 345.892 155.642 341.797L161.348 310.197Z" fill="#FFC700"/>
<path d="M143.527 100.443C141.934 94.4946 147.377 89.0513 153.325 90.6452L206.862 104.99C212.811 106.584 214.803 114.02 210.449 118.375L171.257 157.566C166.902 161.921 159.467 159.929 157.873 153.98L143.527 100.443Z" fill="#FFC700"/>
<ellipse cx="236.799" cy="271.431" rx="12" ry="16" transform="rotate(45 236.799 271.431)" fill="#E17F63"/>
<path d="M262 259.132C262 266.588 259.127 271.132 252.5 271.132C245.873 271.132 239.5 264.088 239.5 256.632C239.5 249.177 243.373 245.632 250 245.632C256.627 245.632 262 251.677 262 259.132Z" fill="#FFDE6A"/>
<path d="M238 256C246.182 270.711 253.81 275.071 272.641 276" stroke="#454545" stroke-width="4" stroke-linecap="round"/>
<path d="M323 226.599C323 252.984 305.091 268.8 283 268.8C260.909 268.8 243 252.984 243 226.599C243 200.214 260.909 184 283 184C305.091 184 323 200.214 323 226.599Z" fill="#FFC700"/>
<path d="M287.4 226C287.4 230.418 284.618 234 280.2 234C275.782 234 273 230.418 273 226C273 221.582 275.782 218 280.2 218C284.618 218 287.4 221.582 287.4 226Z" fill="#454545"/>
<path d="M309.8 226C309.8 230.418 307.018 234 302.6 234C298.182 234 295.4 230.418 295.4 226C295.4 221.582 298.182 218 302.6 218C307.018 218 309.8 221.582 309.8 226Z" fill="#454545"/>
<path d="M92 346.667C92 351.085 88.891 356 83 356C77.109 356 72 354.085 72 349.667C72 345.248 77.109 340 83 340C88.891 340 92 342.248 92 346.667Z" fill="#FAAD14"/>
<path d="M64 352C64 347.582 62.9183 346 58.5 346C54.0817 346 49 347.082 49 351.5C49 355.918 52.5817 356.5 57 356.5C61.4183 356.5 64 356.418 64 352Z" fill="#FAAD14"/>
</svg>
