<svg width="400" height="400" viewBox="0 0 400 400" fill="none" xmlns="http://www.w3.org/2000/svg">
<path fill-rule="evenodd" clip-rule="evenodd" d="M70.8666 223.846C65.0067 214.29 59.4404 205.167 53.2125 195.85C50.2419 191.406 46.5201 186.677 43.3303 182.381C40.5826 188.365 39.9839 191.951 37.1793 197.893C37.1784 197.895 25.0703 190.768 16.2519 185.968C22.3029 198.338 35.4744 211.312 43.1322 218.055C44.9346 213.8 46.7089 209.425 48.1475 205.032C55.7906 211.204 63.304 217.583 70.8666 223.846Z" fill="#FFDE6A" stroke="#FFDE6A" stroke-width="3.94849" stroke-miterlimit="1.5" stroke-linecap="round" stroke-linejoin="round"/>
<path d="M331.975 87.699C337.923 86.1051 343.367 91.5484 341.773 97.497L329.221 144.342C327.627 150.29 320.191 152.283 315.836 147.928L281.543 113.635C277.189 109.281 279.181 101.845 285.13 100.251L331.975 87.699Z" fill="#FFC700"/>
<path d="M251.722 314.664C251.333 310 255.014 306 259.694 306H282.306C286.986 306 290.667 310 290.278 314.664L287.611 346.664C287.266 350.811 283.8 354 279.639 354H262.361C258.2 354 254.734 350.811 254.389 346.664L251.722 314.664Z" fill="#FFC700"/>
<path d="M204.722 314.664C204.333 310 208.014 306 212.694 306H235.306C239.986 306 243.667 310 243.278 314.664L240.611 346.664C240.266 350.811 236.8 354 232.639 354H215.361C211.2 354 207.734 350.811 207.389 346.664L204.722 314.664Z" fill="#FFC700"/>
<circle cx="199" cy="206" r="140" fill="#FFDE6A"/>
<path d="M254.5 182.125C254.5 193.554 245.956 202.75 235.5 202.75C225.044 202.75 216.5 193.554 216.5 182.125C216.5 170.696 225.044 161.5 235.5 161.5C245.956 161.5 254.5 170.696 254.5 182.125Z" fill="#F6F6F6" stroke="#454545"/>
<ellipse cx="240.375" cy="182.125" rx="14.625" ry="16.25" fill="#454545"/>
<path d="M333.5 182.125C333.5 193.554 324.956 202.75 314.5 202.75C304.044 202.75 295.5 193.554 295.5 182.125C295.5 170.696 304.044 161.5 314.5 161.5C324.956 161.5 333.5 170.696 333.5 182.125Z" fill="#F6F6F6" stroke="#454545"/>
<ellipse cx="319.375" cy="182.125" rx="14.625" ry="16.25" fill="#454545"/>
<path d="M109.722 314.664C109.333 310 113.014 306 117.694 306H140.306C144.986 306 148.667 310 148.278 314.664L145.611 346.664C145.266 350.811 141.8 354 137.639 354H120.361C116.2 354 112.734 350.811 112.389 346.664L109.722 314.664Z" fill="#FFC700"/>
<path d="M156.722 314.664C156.333 310 160.014 306 164.694 306H187.306C191.986 306 195.667 310 195.278 314.664L192.611 346.664C192.266 350.811 188.8 354 184.639 354H167.361C163.2 354 159.734 350.811 159.389 346.664L156.722 314.664Z" fill="#FFC700"/>
<path d="M143.527 100.443C141.934 94.4946 147.377 89.0513 153.325 90.6452L206.862 104.99C212.811 106.584 214.803 114.02 210.449 118.375L171.257 157.566C166.902 161.921 159.467 159.929 157.873 153.98L143.527 100.443Z" fill="#FFC700"/>
<path d="M238 256C246.182 270.711 253.81 275.071 272.641 276" stroke="#454545" stroke-width="4" stroke-linecap="round"/>
<path d="M323 226.599C323 252.984 305.091 268.8 283 268.8C260.909 268.8 243 252.984 243 226.599C243 200.214 260.909 184 283 184C305.091 184 323 200.214 323 226.599Z" fill="#FFC700"/>
<path d="M287.4 226C287.4 230.418 284.618 234 280.2 234C275.782 234 273 230.418 273 226C273 221.582 275.782 218 280.2 218C284.618 218 287.4 221.582 287.4 226Z" fill="#454545"/>
<path d="M309.8 226C309.8 230.418 307.018 234 302.6 234C298.182 234 295.4 230.418 295.4 226C295.4 221.582 298.182 218 302.6 218C307.018 218 309.8 221.582 309.8 226Z" fill="#454545"/>
</svg>
