<svg width="400" height="400" viewBox="0 0 400 400" fill="none" xmlns="http://www.w3.org/2000/svg">
<g clip-path="url(#clip0_621_231)">
<path fill-rule="evenodd" clip-rule="evenodd" d="M71.3763 235.358C60.4405 237.822 50.0101 240.148 39.1823 243.038C34.0177 244.417 28.3404 246.414 23.2452 248.048C28.0237 252.579 31.2249 254.302 35.9444 258.874C35.9464 258.875 25.2946 268.037 17.9071 274.836C31.5676 273.098 48.0961 264.815 56.949 259.742C53.5028 256.663 49.934 253.573 46.2392 250.794C54.5474 245.55 63.0089 240.496 71.3763 235.358Z" fill="#FFDE6A" stroke="#FFDE6A" stroke-width="3.94849" stroke-miterlimit="1.5" stroke-linecap="round" stroke-linejoin="round"/>
<path d="M323.975 87.699C329.923 86.1051 335.366 91.5484 333.772 97.497L321.22 144.342C319.627 150.29 312.191 152.283 307.836 147.928L273.543 113.635C269.189 109.281 271.181 101.845 277.13 100.251L323.975 87.699Z" fill="#FFC700"/>
<path d="M240.41 320.176C238.827 315.772 241.347 310.955 245.868 309.744L267.709 303.892C272.23 302.68 276.82 305.592 277.652 310.197L283.358 341.797C284.098 345.892 281.575 349.869 277.556 350.946L260.867 355.418C256.848 356.495 252.675 354.311 251.268 350.396L240.41 320.176Z" fill="#FFC700"/>
<path d="M201.348 310.197C202.18 305.592 206.77 302.68 211.291 303.892L233.132 309.744C237.653 310.955 240.173 315.772 238.59 320.176L227.732 350.396C226.325 354.311 222.152 356.495 218.133 355.418L201.444 350.946C197.425 349.869 194.902 345.892 195.642 341.797L201.348 310.197Z" fill="#FFC700"/>
<circle cx="191" cy="206" r="140" fill="#FFDE6A"/>
<path d="M246.5 182.125C246.5 193.554 237.956 202.75 227.5 202.75C217.044 202.75 208.5 193.554 208.5 182.125C208.5 170.696 217.044 161.5 227.5 161.5C237.956 161.5 246.5 170.696 246.5 182.125Z" fill="#F6F6F6" stroke="#454545"/>
<ellipse cx="232.375" cy="182.125" rx="14.625" ry="16.25" fill="#454545"/>
<path d="M325.5 182.125C325.5 193.554 316.956 202.75 306.5 202.75C296.043 202.75 287.5 193.554 287.5 182.125C287.5 170.696 296.043 161.5 306.5 161.5C316.956 161.5 325.5 170.696 325.5 182.125Z" fill="#F6F6F6" stroke="#454545"/>
<ellipse cx="311.375" cy="182.125" rx="14.625" ry="16.25" fill="#454545"/>
<path d="M106.348 310.197C107.18 305.592 111.77 302.68 116.291 303.892L138.132 309.744C142.653 310.955 145.173 315.772 143.59 320.176L132.732 350.396C131.325 354.311 127.152 356.495 123.133 355.418L106.444 350.946C102.425 349.869 99.9021 345.892 100.641 341.797L106.348 310.197Z" fill="#FFC700"/>
<path d="M145.41 320.176C143.827 315.772 146.347 310.955 150.868 309.744L172.709 303.892C177.23 302.68 181.82 305.592 182.652 310.197L188.358 341.797C189.098 345.892 186.575 349.869 182.556 350.946L165.867 355.418C161.848 356.495 157.675 354.311 156.268 350.396L145.41 320.176Z" fill="#FFC700"/>
<path d="M135.527 100.443C133.934 94.4946 139.377 89.0513 145.325 90.6452L198.862 104.99C204.811 106.584 206.803 114.02 202.449 118.375L163.257 157.566C158.902 161.921 151.467 159.929 149.873 153.98L135.527 100.443Z" fill="#FFC700"/>
<ellipse cx="234.471" cy="267.604" rx="12" ry="16" transform="rotate(45 234.471 267.604)" fill="#E17F63"/>
<path d="M254 259.132C254 266.588 251.127 271.132 244.5 271.132C237.873 271.132 231.5 264.088 231.5 256.632C231.5 249.177 235.373 245.632 242 245.632C248.627 245.632 254 251.677 254 259.132Z" fill="#FFDE6A"/>
<path d="M230 256C238.182 270.711 245.81 275.071 264.641 276" stroke="#454545" stroke-width="4" stroke-linecap="round"/>
<path d="M315 226.599C315 252.984 297.091 268.8 275 268.8C252.909 268.8 235 252.984 235 226.599C235 200.214 252.909 184 275 184C297.091 184 315 200.214 315 226.599Z" fill="#FFC700"/>
<path d="M279.4 226C279.4 230.418 276.618 234 272.2 234C267.782 234 265 230.418 265 226C265 221.582 267.782 218 272.2 218C276.618 218 279.4 221.582 279.4 226Z" fill="#454545"/>
<path d="M301.8 226C301.8 230.418 299.018 234 294.6 234C290.182 234 287.4 230.418 287.4 226C287.4 221.582 290.182 218 294.6 218C299.018 218 301.8 221.582 301.8 226Z" fill="#454545"/>
</g>
<defs>
<clipPath id="clip0_621_231">
<rect width="400" height="400" fill="white"/>
</clipPath>
</defs>
</svg>
